<mxfile host="app.diagrams.net" modified="2023-03-10T15:54:02.814Z" agent="5.0 (Macintosh; Intel Mac OS X 10_15_7) AppleWebKit/537.36 (KHTML, like Gecko) Chrome/110.0.0.0 Safari/537.36" etag="Re9irBk7FPfVUiMC6S5U" version="20.8.22" type="github">
  <diagram name="Page-1" id="_zbrBUCUruDryijLgmsr">
    <mxGraphModel dx="1363" dy="1894" grid="1" gridSize="10" guides="1" tooltips="1" connect="1" arrows="1" fold="1" page="1" pageScale="1" pageWidth="850" pageHeight="1100" math="0" shadow="0">
      <root>
        <mxCell id="0" />
        <mxCell id="1" parent="0" />
        <mxCell id="dptRVDpqFGGdvCAzj5YB-2" value="&lt;b style=&quot;font-size: 13px;&quot;&gt;Social Capital&lt;br style=&quot;font-size: 13px;&quot;&gt;&lt;/b&gt;&lt;ol style=&quot;font-size: 13px;&quot;&gt;&lt;li style=&quot;text-align: left; font-size: 13px;&quot;&gt;Health providers per capita&lt;/li&gt;&lt;li style=&quot;text-align: left; font-size: 13px;&quot;&gt;Population with health insurance&lt;/li&gt;&lt;li style=&quot;text-align: left; font-size: 13px;&quot;&gt;Less than high school&lt;/li&gt;&lt;li style=&quot;text-align: left; font-size: 13px;&quot;&gt;Graduate degree&lt;/li&gt;&lt;li style=&quot;text-align: left; font-size: 13px;&quot;&gt;Families below poverty line&lt;/li&gt;&lt;li style=&quot;text-align: left; font-size: 13px;&quot;&gt;Population with upper-tail income&lt;/li&gt;&lt;li style=&quot;border-color: var(--border-color); text-align: left; font-size: 13px;&quot;&gt;Proprietors income/net income&amp;nbsp;&lt;/li&gt;&lt;li style=&quot;text-align: left; font-size: 13px;&quot;&gt;White (race)&lt;/li&gt;&lt;li style=&quot;text-align: left; font-size: 13px;&quot;&gt;Hispanic population&lt;/li&gt;&lt;li style=&quot;text-align: left; font-size: 13px;&quot;&gt;Male population&lt;/li&gt;&lt;li style=&quot;text-align: left; font-size: 13px;&quot;&gt;Dependents (18 years and under)&lt;/li&gt;&lt;li style=&quot;text-align: left; font-size: 13px;&quot;&gt;65 years and older&lt;/li&gt;&lt;li style=&quot;text-align: left; font-size: 13px;&quot;&gt;Population density&lt;/li&gt;&lt;li style=&quot;text-align: left; font-size: 13px;&quot;&gt;Ratio between livestock and crops&amp;nbsp;&lt;/li&gt;&lt;/ol&gt;" style="whiteSpace=wrap;html=1;rounded=1;fillColor=#fff2cc;strokeColor=#d6b656;fontSize=13;verticalAlign=middle;" vertex="1" parent="1">
          <mxGeometry x="30" y="-1010" width="270" height="300" as="geometry" />
        </mxCell>
        <mxCell id="dptRVDpqFGGdvCAzj5YB-3" value="&lt;div style=&quot;&quot;&gt;&lt;span style=&quot;background-color: initial;&quot;&gt;(+) Health providers per capita&lt;/span&gt;&lt;/div&gt;&lt;span style=&quot;background-color: initial;&quot;&gt;&lt;div style=&quot;&quot;&gt;&lt;span style=&quot;background-color: initial;&quot;&gt;(+) Population with health insurance&lt;/span&gt;&lt;/div&gt;&lt;/span&gt;&lt;span style=&quot;background-color: initial;&quot;&gt;&lt;div style=&quot;&quot;&gt;&lt;span style=&quot;background-color: initial;&quot;&gt;(-) Less than high school&lt;/span&gt;&lt;/div&gt;&lt;/span&gt;&lt;span style=&quot;background-color: initial;&quot;&gt;&lt;div style=&quot;&quot;&gt;&lt;span style=&quot;background-color: initial;&quot;&gt;(+) Graduate degree&lt;/span&gt;&lt;/div&gt;&lt;/span&gt;&lt;span style=&quot;background-color: initial;&quot;&gt;&lt;div style=&quot;&quot;&gt;&lt;span style=&quot;background-color: initial;&quot;&gt;(-) Families below poverty line&lt;/span&gt;&lt;/div&gt;&lt;/span&gt;&lt;span style=&quot;background-color: initial;&quot;&gt;&lt;div style=&quot;&quot;&gt;&lt;span style=&quot;background-color: initial;&quot;&gt;(+) Population with upper-tail income&lt;/span&gt;&lt;/div&gt;&lt;div style=&quot;&quot;&gt;(+) Proprietors income/net income&lt;span style=&quot;background-color: initial;&quot;&gt;&lt;br&gt;&lt;/span&gt;&lt;/div&gt;&lt;/span&gt;&lt;span style=&quot;background-color: initial;&quot;&gt;&lt;div style=&quot;&quot;&gt;&lt;span style=&quot;background-color: initial;&quot;&gt;(+) White (race)&lt;/span&gt;&lt;/div&gt;&lt;/span&gt;&lt;span style=&quot;background-color: initial;&quot;&gt;&lt;div style=&quot;&quot;&gt;&lt;span style=&quot;background-color: initial;&quot;&gt;(-) Hispanic population&lt;/span&gt;&lt;/div&gt;&lt;/span&gt;&lt;span style=&quot;background-color: initial;&quot;&gt;&lt;div style=&quot;&quot;&gt;&lt;span style=&quot;background-color: initial;&quot;&gt;(+) Male population&lt;/span&gt;&lt;/div&gt;&lt;/span&gt;&lt;span style=&quot;background-color: initial;&quot;&gt;&lt;div style=&quot;&quot;&gt;&lt;span style=&quot;background-color: initial;&quot;&gt;(-) Dependents (18 years and under)&lt;/span&gt;&lt;/div&gt;&lt;/span&gt;&lt;span style=&quot;background-color: initial;&quot;&gt;&lt;div style=&quot;&quot;&gt;&lt;span style=&quot;background-color: initial;&quot;&gt;(-) 65 years and older&lt;/span&gt;&lt;/div&gt;&lt;/span&gt;&lt;span style=&quot;background-color: initial;&quot;&gt;&lt;div style=&quot;&quot;&gt;&lt;span style=&quot;background-color: initial;&quot;&gt;(-) Population density&lt;/span&gt;&lt;/div&gt;&lt;/span&gt;&lt;span style=&quot;background-color: initial;&quot;&gt;&lt;div style=&quot;&quot;&gt;&lt;span style=&quot;background-color: initial;&quot;&gt;(+) Ratio between livestock and crops&amp;nbsp;&lt;/span&gt;&lt;/div&gt;&lt;/span&gt;" style="whiteSpace=wrap;html=1;rounded=1;fillColor=#fff2cc;strokeColor=#d6b656;align=left;spacingLeft=15;" vertex="1" parent="1">
          <mxGeometry x="280" y="150" width="240" height="250" as="geometry" />
        </mxCell>
        <mxCell id="dptRVDpqFGGdvCAzj5YB-4" value="&lt;b style=&quot;font-size: 13px;&quot;&gt;Economic Capital&lt;/b&gt;&lt;br style=&quot;font-size: 13px;&quot;&gt;&lt;ol style=&quot;font-size: 13px;&quot;&gt;&lt;li style=&quot;text-align: left; font-size: 13px;&quot;&gt;Farmer net income&lt;/li&gt;&lt;li style=&quot;text-align: left; font-size: 13px;&quot;&gt;&lt;span style=&quot;background-color: initial; font-size: 13px;&quot;&gt;Government payments&lt;/span&gt;&lt;/li&gt;&lt;li style=&quot;text-align: left; font-size: 13px;&quot;&gt;&lt;span style=&quot;background-color: initial; font-size: 13px;&quot;&gt;Crops cash receipts&lt;/span&gt;&lt;/li&gt;&lt;li style=&quot;text-align: left; font-size: 13px;&quot;&gt;&lt;span style=&quot;background-color: initial; font-size: 13px;&quot;&gt;Agriculture contribution to GDP&lt;/span&gt;&lt;/li&gt;&lt;li style=&quot;text-align: left; font-size: 13px;&quot;&gt;&lt;span style=&quot;background-color: initial; font-size: 13px;&quot;&gt;Production expense&lt;/span&gt;&lt;/li&gt;&lt;li style=&quot;text-align: left; font-size: 13px;&quot;&gt;&lt;span style=&quot;background-color: initial; font-size: 13px;&quot;&gt;Labor expense&lt;/span&gt;&lt;/li&gt;&lt;li style=&quot;text-align: left; font-size: 13px;&quot;&gt;&lt;span style=&quot;background-color: initial; font-size: 13px;&quot;&gt;Population with Social Security&lt;/span&gt;&lt;/li&gt;&lt;li style=&quot;text-align: left; font-size: 13px;&quot;&gt;&lt;span style=&quot;background-color: initial; font-size: 13px;&quot;&gt;Population with SNAP&lt;/span&gt;&lt;/li&gt;&lt;li style=&quot;text-align: left; font-size: 13px;&quot;&gt;&lt;span style=&quot;background-color: initial; font-size: 13px;&quot;&gt;Population with disability&lt;/span&gt;&lt;/li&gt;&lt;li style=&quot;text-align: left; font-size: 13px;&quot;&gt;&lt;span style=&quot;background-color: initial; font-size: 13px;&quot;&gt;Median income&lt;/span&gt;&lt;br style=&quot;font-size: 13px;&quot;&gt;&lt;/li&gt;&lt;li style=&quot;text-align: left; font-size: 13px;&quot;&gt;Unemployment&lt;/li&gt;&lt;/ol&gt;" style="whiteSpace=wrap;html=1;rounded=1;fillColor=#dae8fc;strokeColor=#6c8ebf;fontSize=13;verticalAlign=middle;" vertex="1" parent="1">
          <mxGeometry x="320" y="-1010" width="270" height="230" as="geometry" />
        </mxCell>
        <mxCell id="dptRVDpqFGGdvCAzj5YB-5" value="&lt;div style=&quot;&quot;&gt;&lt;span style=&quot;background-color: initial;&quot;&gt;(+) Farmer net income&lt;/span&gt;&lt;/div&gt;&lt;span style=&quot;background-color: initial;&quot;&gt;&lt;div style=&quot;&quot;&gt;&lt;span style=&quot;background-color: initial;&quot;&gt;(-) Government payments&lt;/span&gt;&lt;/div&gt;&lt;/span&gt;&lt;span style=&quot;background-color: initial;&quot;&gt;&lt;div style=&quot;&quot;&gt;&lt;span style=&quot;background-color: initial;&quot;&gt;(+) Crops cash receipts&lt;/span&gt;&lt;/div&gt;&lt;/span&gt;&lt;span style=&quot;background-color: initial;&quot;&gt;&lt;div style=&quot;&quot;&gt;&lt;span style=&quot;background-color: initial;&quot;&gt;(+) Agriculture contribution to GDP&lt;/span&gt;&lt;/div&gt;&lt;/span&gt;&lt;span style=&quot;background-color: initial;&quot;&gt;&lt;div style=&quot;&quot;&gt;&lt;span style=&quot;background-color: initial;&quot;&gt;(-) Production expense&lt;/span&gt;&lt;/div&gt;&lt;/span&gt;&lt;span style=&quot;background-color: initial;&quot;&gt;&lt;div style=&quot;&quot;&gt;&lt;span style=&quot;background-color: initial;&quot;&gt;(+) Labor expense&lt;/span&gt;&lt;/div&gt;&lt;/span&gt;&lt;span style=&quot;background-color: initial;&quot;&gt;&lt;div style=&quot;&quot;&gt;&lt;span style=&quot;background-color: initial;&quot;&gt;(-) Population with Social Security&lt;/span&gt;&lt;/div&gt;&lt;/span&gt;&lt;span style=&quot;background-color: initial;&quot;&gt;&lt;div style=&quot;&quot;&gt;&lt;span style=&quot;background-color: initial;&quot;&gt;(-) Population with SNAP&lt;/span&gt;&lt;/div&gt;&lt;/span&gt;&lt;span style=&quot;background-color: initial;&quot;&gt;&lt;div style=&quot;&quot;&gt;&lt;span style=&quot;background-color: initial;&quot;&gt;(-) Population with disability&lt;/span&gt;&lt;/div&gt;&lt;/span&gt;&lt;span style=&quot;background-color: initial;&quot;&gt;&lt;div style=&quot;&quot;&gt;&lt;span style=&quot;background-color: initial;&quot;&gt;(+) Median income&lt;/span&gt;&lt;/div&gt;&lt;/span&gt;&lt;span style=&quot;background-color: initial;&quot;&gt;&lt;div style=&quot;&quot;&gt;&lt;span style=&quot;background-color: initial;&quot;&gt;(-) Unemployment&lt;/span&gt;&lt;/div&gt;&lt;/span&gt;" style="whiteSpace=wrap;html=1;rounded=1;fillColor=#dae8fc;strokeColor=#6c8ebf;align=left;spacingLeft=15;" vertex="1" parent="1">
          <mxGeometry x="280" y="410" width="240" height="200" as="geometry" />
        </mxCell>
        <mxCell id="dptRVDpqFGGdvCAzj5YB-6" value="&lt;b style=&quot;font-size: 13px;&quot;&gt;Physical Capital&lt;/b&gt;&lt;br style=&quot;font-size: 13px;&quot;&gt;&lt;ol style=&quot;font-size: 13px;&quot;&gt;&lt;li style=&quot;text-align: left; font-size: 13px;&quot;&gt;Winter wheat yield&lt;/li&gt;&lt;li style=&quot;text-align: left; font-size: 13px;&quot;&gt;Corn Grain yield&lt;/li&gt;&lt;li style=&quot;text-align: left; font-size: 13px;&quot;&gt;Soybean yield&lt;/li&gt;&lt;li style=&quot;text-align: left; font-size: 13px;&quot;&gt;Fertilizer used&lt;/li&gt;&lt;li style=&quot;text-align: left; font-size: 13px;&quot;&gt;Acres planted from all crops&lt;/li&gt;&lt;li style=&quot;text-align: left; font-size: 13px;&quot;&gt;Percent irrigation&lt;/li&gt;&lt;/ol&gt;" style="whiteSpace=wrap;html=1;rounded=1;fillColor=#e1d5e7;strokeColor=#9673a6;fontSize=13;verticalAlign=middle;" vertex="1" parent="1">
          <mxGeometry x="610" y="-1010" width="270" height="160" as="geometry" />
        </mxCell>
        <mxCell id="dptRVDpqFGGdvCAzj5YB-9" value="&lt;div style=&quot;&quot;&gt;&lt;span style=&quot;background-color: initial;&quot;&gt;(+) Winter wheat yield&lt;/span&gt;&lt;/div&gt;&lt;span style=&quot;background-color: initial;&quot;&gt;&lt;div style=&quot;&quot;&gt;&lt;span style=&quot;background-color: initial;&quot;&gt;(+) Corn Grain yield&lt;/span&gt;&lt;/div&gt;&lt;/span&gt;&lt;span style=&quot;background-color: initial;&quot;&gt;&lt;div style=&quot;&quot;&gt;&lt;span style=&quot;background-color: initial;&quot;&gt;(+) Soybean yield&lt;/span&gt;&lt;/div&gt;&lt;/span&gt;&lt;span style=&quot;background-color: initial;&quot;&gt;&lt;div style=&quot;&quot;&gt;&lt;span style=&quot;background-color: initial;&quot;&gt;(-) Fertilizer used&lt;/span&gt;&lt;/div&gt;&lt;/span&gt;&lt;span style=&quot;background-color: initial;&quot;&gt;&lt;div style=&quot;&quot;&gt;&lt;span style=&quot;background-color: initial;&quot;&gt;(-) Acres planted from all crops&lt;/span&gt;&lt;/div&gt;&lt;/span&gt;&lt;span style=&quot;background-color: initial;&quot;&gt;&lt;div style=&quot;&quot;&gt;&lt;span style=&quot;background-color: initial;&quot;&gt;(+) Percent irrigation&lt;/span&gt;&lt;/div&gt;&lt;/span&gt;" style="html=1;rounded=1;fillColor=#e1d5e7;strokeColor=#9673a6;align=left;horizontal=1;whiteSpace=wrap;spacingLeft=15;" vertex="1" parent="1">
          <mxGeometry x="280" y="620" width="240" height="130" as="geometry" />
        </mxCell>
        <mxCell id="dptRVDpqFGGdvCAzj5YB-21" style="edgeStyle=orthogonalEdgeStyle;rounded=0;orthogonalLoop=1;jettySize=auto;html=1;exitX=1;exitY=0.5;exitDx=0;exitDy=0;entryX=0;entryY=0.5;entryDx=0;entryDy=0;strokeWidth=2;fontSize=13;endArrow=none;endFill=0;" edge="1" parent="1" source="dptRVDpqFGGdvCAzj5YB-14" target="dptRVDpqFGGdvCAzj5YB-3">
          <mxGeometry relative="1" as="geometry" />
        </mxCell>
        <mxCell id="dptRVDpqFGGdvCAzj5YB-14" value="&lt;b&gt;Social Capital&lt;/b&gt;" style="whiteSpace=wrap;html=1;fillColor=#fff2cc;strokeColor=#d6b656;rounded=1;" vertex="1" parent="1">
          <mxGeometry x="90" y="245" width="120" height="60" as="geometry" />
        </mxCell>
        <mxCell id="dptRVDpqFGGdvCAzj5YB-18" style="edgeStyle=orthogonalEdgeStyle;rounded=0;orthogonalLoop=1;jettySize=auto;html=1;exitX=1;exitY=0.5;exitDx=0;exitDy=0;entryX=0;entryY=0.5;entryDx=0;entryDy=0;fontSize=13;strokeWidth=2;endArrow=none;endFill=0;" edge="1" parent="1" source="dptRVDpqFGGdvCAzj5YB-16" target="dptRVDpqFGGdvCAzj5YB-5">
          <mxGeometry relative="1" as="geometry" />
        </mxCell>
        <mxCell id="dptRVDpqFGGdvCAzj5YB-16" value="&lt;b&gt;Economic Capital&lt;/b&gt;" style="whiteSpace=wrap;html=1;fillColor=#dae8fc;strokeColor=#6c8ebf;rounded=1;" vertex="1" parent="1">
          <mxGeometry x="90" y="480" width="120" height="60" as="geometry" />
        </mxCell>
        <mxCell id="dptRVDpqFGGdvCAzj5YB-24" style="edgeStyle=orthogonalEdgeStyle;rounded=0;orthogonalLoop=1;jettySize=auto;html=1;exitX=1;exitY=0.5;exitDx=0;exitDy=0;entryX=0;entryY=0.5;entryDx=0;entryDy=0;strokeWidth=2;fontSize=13;endArrow=none;endFill=0;" edge="1" parent="1" source="dptRVDpqFGGdvCAzj5YB-20" target="dptRVDpqFGGdvCAzj5YB-9">
          <mxGeometry relative="1" as="geometry" />
        </mxCell>
        <mxCell id="dptRVDpqFGGdvCAzj5YB-20" value="&lt;b&gt;Physical Capital&lt;/b&gt;" style="whiteSpace=wrap;html=1;fillColor=#e1d5e7;strokeColor=#9673a6;rounded=1;fontSize=13;" vertex="1" parent="1">
          <mxGeometry x="90" y="655" width="120" height="60" as="geometry" />
        </mxCell>
        <mxCell id="dptRVDpqFGGdvCAzj5YB-25" value="" style="rounded=1;whiteSpace=wrap;html=1;fontSize=13;labelBorderColor=default;labelBackgroundColor=none;gradientColor=default;fillColor=none;dashed=1;dashPattern=12 12;strokeColor=#512888;" vertex="1" parent="1">
          <mxGeometry x="250" y="130" width="310" height="650" as="geometry" />
        </mxCell>
        <mxCell id="dptRVDpqFGGdvCAzj5YB-40" style="edgeStyle=orthogonalEdgeStyle;rounded=0;orthogonalLoop=1;jettySize=auto;html=1;exitX=1;exitY=0.5;exitDx=0;exitDy=0;entryX=0;entryY=0.5;entryDx=0;entryDy=0;dashed=1;dashPattern=12 12;strokeColor=#512888;strokeWidth=1;fontSize=13;fontColor=#666666;endArrow=none;endFill=0;" edge="1" parent="1" source="dptRVDpqFGGdvCAzj5YB-27" target="dptRVDpqFGGdvCAzj5YB-39">
          <mxGeometry relative="1" as="geometry" />
        </mxCell>
        <mxCell id="dptRVDpqFGGdvCAzj5YB-27" value="No subscores (capitals)" style="text;html=1;strokeColor=#512888;fillColor=none;align=center;verticalAlign=middle;whiteSpace=wrap;rounded=0;fontSize=13;fontColor=#666666;dashed=1;dashPattern=12 12;" vertex="1" parent="1">
          <mxGeometry x="600" y="680" width="110" height="35" as="geometry" />
        </mxCell>
        <mxCell id="dptRVDpqFGGdvCAzj5YB-28" value="" style="rounded=1;whiteSpace=wrap;html=1;dashed=1;dashPattern=1 1;labelBackgroundColor=none;labelBorderColor=default;strokeColor=#424242;fontSize=13;fillColor=none;gradientColor=default;" vertex="1" parent="1">
          <mxGeometry x="70" y="210" width="155" height="550" as="geometry" />
        </mxCell>
        <mxCell id="dptRVDpqFGGdvCAzj5YB-29" style="edgeStyle=orthogonalEdgeStyle;rounded=0;orthogonalLoop=1;jettySize=auto;html=1;exitX=0.5;exitY=1;exitDx=0;exitDy=0;dashed=1;dashPattern=12 12;strokeColor=#512888;strokeWidth=1;fontSize=13;endArrow=none;endFill=0;" edge="1" parent="1" source="dptRVDpqFGGdvCAzj5YB-28" target="dptRVDpqFGGdvCAzj5YB-28">
          <mxGeometry relative="1" as="geometry" />
        </mxCell>
        <mxCell id="dptRVDpqFGGdvCAzj5YB-37" style="edgeStyle=orthogonalEdgeStyle;rounded=0;orthogonalLoop=1;jettySize=auto;html=1;exitX=1;exitY=0.5;exitDx=0;exitDy=0;entryX=0;entryY=0.5;entryDx=0;entryDy=0;dashed=1;dashPattern=1 1;strokeColor=#424242;strokeWidth=1;fontSize=13;fontColor=#666666;endArrow=none;endFill=0;" edge="1" parent="1" source="dptRVDpqFGGdvCAzj5YB-31" target="dptRVDpqFGGdvCAzj5YB-36">
          <mxGeometry relative="1" as="geometry" />
        </mxCell>
        <mxCell id="dptRVDpqFGGdvCAzj5YB-31" value="Subscores (capitals)" style="text;html=1;strokeColor=#424242;fillColor=none;align=center;verticalAlign=middle;whiteSpace=wrap;rounded=0;fontSize=13;fontColor=#666666;dashed=1;dashPattern=1 1;" vertex="1" parent="1">
          <mxGeometry x="600" y="625" width="110" height="40" as="geometry" />
        </mxCell>
        <mxCell id="dptRVDpqFGGdvCAzj5YB-36" value="ACs" style="text;html=1;strokeColor=none;fillColor=none;align=center;verticalAlign=middle;whiteSpace=wrap;rounded=0;fontSize=13;fontColor=#666666;" vertex="1" parent="1">
          <mxGeometry x="720" y="630" width="40" height="30" as="geometry" />
        </mxCell>
        <mxCell id="dptRVDpqFGGdvCAzj5YB-39" value="ACns" style="text;html=1;strokeColor=none;fillColor=none;align=center;verticalAlign=middle;whiteSpace=wrap;rounded=0;fontSize=13;fontColor=#666666;" vertex="1" parent="1">
          <mxGeometry x="720" y="682.5" width="40" height="30" as="geometry" />
        </mxCell>
      </root>
    </mxGraphModel>
  </diagram>
</mxfile>
